<svg width="782" height="550" viewBox="0 0 782 550" fill="none" xmlns="http://www.w3.org/2000/svg">
<path d="M161.8 318.84L114.68 384.96V540H0.680003V9.51999H114.68V231.44H120.76L178.52 143.28L272 9.51999H399.68L240.84 233.72L407.28 540H278.84L161.8 318.84Z" fill="#001F7B"/>
<path d="M578.743 549.12C534.156 549.12 495.396 541.773 462.463 527.08C429.53 512.387 402.93 492.373 382.663 467.04L448.783 394.08C468.036 415.36 489.063 431.067 511.863 441.2C535.17 451.333 558.73 456.4 582.543 456.4C609.903 456.4 630.676 450.32 644.863 438.16C659.05 426 666.143 408.52 666.143 385.72C666.143 366.973 660.57 352.787 649.423 343.16C638.783 333.533 620.543 326.693 594.703 322.64L539.223 313.52C491.596 305.413 457.143 287.933 435.863 261.08C414.583 233.72 403.943 200.533 403.943 161.52C403.943 110.347 420.663 70.8266 454.103 42.96C487.543 14.5866 534.41 0.399971 594.703 0.399971C635.743 0.399971 671.463 6.7333 701.863 19.4C732.263 32.0666 756.836 49.2933 775.583 71.08L710.983 143.28C696.796 127.573 680.076 115.413 660.823 106.8C641.57 97.68 619.783 93.12 595.463 93.12C544.29 93.12 518.703 114.147 518.703 156.2C518.703 174.44 524.276 188.12 535.423 197.24C547.076 206.36 565.823 213.2 591.663 217.76L647.143 227.64C690.21 235.24 723.396 251.453 746.703 276.28C770.01 301.107 781.663 334.547 781.663 376.6C781.663 401.427 777.356 424.48 768.743 445.76C760.13 466.533 747.21 484.773 729.983 500.48C712.756 515.68 691.476 527.587 666.143 536.2C641.316 544.813 612.183 549.12 578.743 549.12Z" fill="#45B8FF"/>
</svg>
